<mxfile host="app.diagrams.net" modified="2023-10-29T11:37:39.994Z" agent="Mozilla/5.0 (Windows NT 10.0; Win64; x64) AppleWebKit/537.36 (KHTML, like Gecko) Chrome/118.0.0.0 Safari/537.36" etag="0M0GXazYPKUiR-pvpvtP" version="22.0.8" type="device">
  <diagram id="C5RBs43oDa-KdzZeNtuy" name="Page-1">
    <mxGraphModel dx="2074" dy="782" grid="1" gridSize="10" guides="1" tooltips="1" connect="1" arrows="1" fold="1" page="1" pageScale="1" pageWidth="827" pageHeight="1169" math="0" shadow="0">
      <root>
        <mxCell id="WIyWlLk6GJQsqaUBKTNV-0" />
        <mxCell id="WIyWlLk6GJQsqaUBKTNV-1" parent="WIyWlLk6GJQsqaUBKTNV-0" />
        <mxCell id="18-bid8nBndoBZEZ4asC-0" value="ABC" style="rounded=0;whiteSpace=wrap;html=1;" vertex="1" parent="WIyWlLk6GJQsqaUBKTNV-1">
          <mxGeometry x="640" y="210" width="120" height="30" as="geometry" />
        </mxCell>
        <mxCell id="18-bid8nBndoBZEZ4asC-14" style="edgeStyle=orthogonalEdgeStyle;rounded=0;orthogonalLoop=1;jettySize=auto;html=1;exitX=0;exitY=1;exitDx=0;exitDy=0;" edge="1" parent="WIyWlLk6GJQsqaUBKTNV-1" source="18-bid8nBndoBZEZ4asC-1" target="18-bid8nBndoBZEZ4asC-3">
          <mxGeometry relative="1" as="geometry" />
        </mxCell>
        <mxCell id="18-bid8nBndoBZEZ4asC-15" style="edgeStyle=orthogonalEdgeStyle;rounded=0;orthogonalLoop=1;jettySize=auto;html=1;exitX=0;exitY=0.5;exitDx=0;exitDy=0;entryX=0.5;entryY=0;entryDx=0;entryDy=0;" edge="1" parent="WIyWlLk6GJQsqaUBKTNV-1" source="18-bid8nBndoBZEZ4asC-1" target="18-bid8nBndoBZEZ4asC-6">
          <mxGeometry relative="1" as="geometry" />
        </mxCell>
        <mxCell id="18-bid8nBndoBZEZ4asC-16" style="edgeStyle=orthogonalEdgeStyle;rounded=0;orthogonalLoop=1;jettySize=auto;html=1;exitX=0;exitY=0;exitDx=0;exitDy=0;entryX=0.5;entryY=0;entryDx=0;entryDy=0;" edge="1" parent="WIyWlLk6GJQsqaUBKTNV-1" source="18-bid8nBndoBZEZ4asC-1" target="18-bid8nBndoBZEZ4asC-7">
          <mxGeometry relative="1" as="geometry" />
        </mxCell>
        <mxCell id="18-bid8nBndoBZEZ4asC-17" style="edgeStyle=orthogonalEdgeStyle;rounded=0;orthogonalLoop=1;jettySize=auto;html=1;exitX=1;exitY=1;exitDx=0;exitDy=0;" edge="1" parent="WIyWlLk6GJQsqaUBKTNV-1" source="18-bid8nBndoBZEZ4asC-1" target="18-bid8nBndoBZEZ4asC-5">
          <mxGeometry relative="1" as="geometry" />
        </mxCell>
        <mxCell id="18-bid8nBndoBZEZ4asC-18" style="edgeStyle=orthogonalEdgeStyle;rounded=0;orthogonalLoop=1;jettySize=auto;html=1;exitX=1;exitY=0.5;exitDx=0;exitDy=0;entryX=0.5;entryY=0;entryDx=0;entryDy=0;" edge="1" parent="WIyWlLk6GJQsqaUBKTNV-1" source="18-bid8nBndoBZEZ4asC-1" target="18-bid8nBndoBZEZ4asC-4">
          <mxGeometry relative="1" as="geometry" />
        </mxCell>
        <mxCell id="18-bid8nBndoBZEZ4asC-19" style="edgeStyle=orthogonalEdgeStyle;rounded=0;orthogonalLoop=1;jettySize=auto;html=1;exitX=1;exitY=0;exitDx=0;exitDy=0;entryX=0.5;entryY=0;entryDx=0;entryDy=0;" edge="1" parent="WIyWlLk6GJQsqaUBKTNV-1" source="18-bid8nBndoBZEZ4asC-1" target="18-bid8nBndoBZEZ4asC-8">
          <mxGeometry relative="1" as="geometry" />
        </mxCell>
        <mxCell id="18-bid8nBndoBZEZ4asC-1" value="info.Field" style="rounded=0;whiteSpace=wrap;html=1;" vertex="1" parent="WIyWlLk6GJQsqaUBKTNV-1">
          <mxGeometry x="640" y="300" width="120" height="30" as="geometry" />
        </mxCell>
        <mxCell id="18-bid8nBndoBZEZ4asC-2" value="" style="endArrow=classic;html=1;rounded=0;" edge="1" parent="WIyWlLk6GJQsqaUBKTNV-1">
          <mxGeometry width="50" height="50" relative="1" as="geometry">
            <mxPoint x="699.5" y="240" as="sourcePoint" />
            <mxPoint x="700.5" y="300" as="targetPoint" />
          </mxGeometry>
        </mxCell>
        <mxCell id="18-bid8nBndoBZEZ4asC-3" value="info.Note" style="rounded=0;whiteSpace=wrap;html=1;" vertex="1" parent="WIyWlLk6GJQsqaUBKTNV-1">
          <mxGeometry x="520" y="380" width="120" height="30" as="geometry" />
        </mxCell>
        <mxCell id="18-bid8nBndoBZEZ4asC-4" value="info.Name" style="rounded=0;whiteSpace=wrap;html=1;" vertex="1" parent="WIyWlLk6GJQsqaUBKTNV-1">
          <mxGeometry x="920" y="380" width="120" height="30" as="geometry" />
        </mxCell>
        <mxCell id="18-bid8nBndoBZEZ4asC-5" value="info.Phone" style="rounded=0;whiteSpace=wrap;html=1;" vertex="1" parent="WIyWlLk6GJQsqaUBKTNV-1">
          <mxGeometry x="760" y="380" width="120" height="30" as="geometry" />
        </mxCell>
        <mxCell id="18-bid8nBndoBZEZ4asC-6" value="info.Status" style="rounded=0;whiteSpace=wrap;html=1;" vertex="1" parent="WIyWlLk6GJQsqaUBKTNV-1">
          <mxGeometry x="360" y="380" width="120" height="30" as="geometry" />
        </mxCell>
        <mxCell id="18-bid8nBndoBZEZ4asC-7" value="info.Birthday" style="rounded=0;whiteSpace=wrap;html=1;" vertex="1" parent="WIyWlLk6GJQsqaUBKTNV-1">
          <mxGeometry x="200" y="380" width="120" height="30" as="geometry" />
        </mxCell>
        <mxCell id="18-bid8nBndoBZEZ4asC-8" value="info.Email" style="rounded=0;whiteSpace=wrap;html=1;" vertex="1" parent="WIyWlLk6GJQsqaUBKTNV-1">
          <mxGeometry x="1080" y="380" width="120" height="30" as="geometry" />
        </mxCell>
        <mxCell id="18-bid8nBndoBZEZ4asC-9" value="info.Record" style="rounded=0;whiteSpace=wrap;html=1;" vertex="1" parent="WIyWlLk6GJQsqaUBKTNV-1">
          <mxGeometry x="200" y="450" width="120" height="30" as="geometry" />
        </mxCell>
        <mxCell id="18-bid8nBndoBZEZ4asC-11" style="edgeStyle=orthogonalEdgeStyle;rounded=0;orthogonalLoop=1;jettySize=auto;html=1;exitX=0.5;exitY=1;exitDx=0;exitDy=0;" edge="1" parent="WIyWlLk6GJQsqaUBKTNV-1" source="18-bid8nBndoBZEZ4asC-7" target="18-bid8nBndoBZEZ4asC-7">
          <mxGeometry relative="1" as="geometry" />
        </mxCell>
      </root>
    </mxGraphModel>
  </diagram>
</mxfile>
